<svg width="16" height="16" viewBox="0 0 16 16" fill="none" xmlns="http://www.w3.org/2000/svg">
<path fill-rule="evenodd" clip-rule="evenodd" d="M0.259611 0.259611C0.426056 0.0933737 0.651679 0 0.886921 0C1.12216 0 1.34779 0.0933737 1.51423 0.259611L15.7175 14.4628C15.8047 14.5441 15.8746 14.6421 15.9232 14.751C15.9717 14.8599 15.9978 14.9774 15.9999 15.0966C16.002 15.2158 15.98 15.3342 15.9354 15.4448C15.8907 15.5553 15.8243 15.6557 15.74 15.74C15.6557 15.8243 15.5553 15.8907 15.4448 15.9354C15.3342 15.98 15.2158 16.002 15.0966 15.9999C14.9774 15.9978 14.8599 15.9717 14.751 15.9232C14.6421 15.8746 14.5441 15.8047 14.4628 15.7175L0.259611 1.51423C0.0933737 1.34779 0 1.12216 0 0.886921C0 0.651679 0.0933737 0.426056 0.259611 0.259611Z" fill="black"/>
<path fill-rule="evenodd" clip-rule="evenodd" d="M15.7175 0.259611C15.8837 0.426056 15.9771 0.651679 15.9771 0.886921C15.9771 1.12216 15.8837 1.34779 15.7175 1.51423L1.51423 15.7175C1.34595 15.8743 1.12338 15.9596 0.893404 15.9556C0.663429 15.9515 0.444007 15.8584 0.281364 15.6957C0.118722 15.5331 0.0255583 15.3136 0.0215006 15.0837C0.017443 14.8537 0.102808 14.6311 0.259612 14.4628L14.4628 0.259611C14.6293 0.0933737 14.8549 0 15.0902 0C15.3254 0 15.551 0.0933737 15.7175 0.259611Z" fill="black"/>
</svg>
