<svg width="15" height="15" viewBox="0 0 15 15" fill="none" xmlns="http://www.w3.org/2000/svg">
<path d="M13.9434 3.7186C13.9434 2.51479 12.3314 1.60718 10.1934 1.60718C8.05548 1.60718 6.44342 2.51479 6.44342 3.7186C6.44342 3.7293 6.44576 3.7394 6.44606 3.74995H6.44342V5.35703H7.51481V5.22432C8.18527 5.60239 9.12335 5.82974 10.1934 5.82974C11.1806 5.82974 12.0527 5.63447 12.7087 5.30767C12.8104 5.41284 12.872 5.51743 12.872 5.60913C12.872 6.02295 11.8037 6.64888 10.1934 6.64888H9.12233V7.72026H10.1934C11.1807 7.72026 12.0532 7.525 12.7091 7.19805C12.8109 7.30308 12.8719 7.40767 12.8719 7.4998C12.8719 7.91392 11.8036 8.53984 10.1933 8.53984L9.81403 8.5416C9.58097 8.54365 9.35524 8.54585 9.13522 8.53999L9.109 9.61094C9.22677 9.61387 9.34601 9.61489 9.46759 9.61489C9.58375 9.61489 9.70197 9.61416 9.82208 9.61313L10.1933 9.61138C11.1812 9.61138 12.0539 9.41582 12.71 9.08857C12.8121 9.19448 12.8717 9.29966 12.8717 9.39062C12.8717 9.80474 11.8034 10.4307 10.1931 10.4307H9.12203V11.5021H10.1931C11.181 11.5021 12.0536 11.3065 12.7099 10.9792C12.8121 11.085 12.8717 11.1902 12.8717 11.2813C12.8717 11.6954 11.8034 12.3213 10.1931 12.3213H9.12203V13.3927H10.1931C12.3311 13.3927 13.9431 12.4851 13.9431 11.2813C13.9431 11.2713 13.9418 11.2601 13.9415 11.25H13.9431V3.74995H13.9405C13.9409 3.7394 13.9434 3.72915 13.9434 3.7186ZM7.51481 3.7186C7.51481 3.30449 8.58312 2.67856 10.1934 2.67856C11.8037 2.67856 12.872 3.30449 12.872 3.7186C12.872 4.13242 11.8037 4.75835 10.1934 4.75835C8.58312 4.75835 7.51481 4.13242 7.51481 3.7186Z" fill="#5E8425" stroke="#5E8425" stroke-width="0.00064"/>
<path d="M4.83618 5.35706C2.69824 5.35706 1.08618 6.26467 1.08618 7.46848C1.08618 7.47918 1.08853 7.48928 1.08882 7.49983H1.08618V11.2498C1.08618 12.4536 2.69824 13.3613 4.83618 13.3613C6.97412 13.3613 8.58618 12.4536 8.58618 11.2498V7.49998H8.58354C8.58384 7.48943 8.58618 7.47917 8.58618 7.46863C8.58618 6.26482 6.97412 5.35706 4.83618 5.35706ZM2.15757 9.3593C2.15757 9.26672 2.21807 9.16228 2.31987 9.05725C2.97598 9.38435 3.84858 9.57976 4.83618 9.57976C5.82334 9.57976 6.69551 9.3845 7.35146 9.05769C7.45312 9.16287 7.5148 9.26746 7.5148 9.35916C7.5148 9.77297 6.44648 10.3989 4.83618 10.3989C3.22588 10.3989 2.15757 9.77312 2.15757 9.3593ZM4.83618 6.42859C6.44648 6.42859 7.5148 7.05452 7.5148 7.46863C7.5148 7.88245 6.44648 8.50837 4.83618 8.50837C3.22588 8.50837 2.15757 7.88245 2.15757 7.46863C2.15757 7.05452 3.22588 6.42859 4.83618 6.42859ZM4.83618 12.29C3.22588 12.29 2.15757 11.6641 2.15757 11.25C2.15757 11.1578 2.21865 11.0532 2.32031 10.9482C2.97642 11.2752 3.84873 11.4706 4.83618 11.4706C5.82349 11.4706 6.69595 11.2753 7.3519 10.9484C7.45371 11.0534 7.51465 11.158 7.51465 11.2501C7.51479 11.6641 6.44648 12.29 4.83618 12.29Z" fill="#5E8425" stroke="#5E8425" stroke-width="0.00064"/>
</svg>
