<svg width="30" height="30" viewBox="0 0 30 30" fill="none" xmlns="http://www.w3.org/2000/svg">
<path d="M27.8868 7.43721C27.8868 5.02959 24.6627 3.21436 20.3868 3.21436C16.111 3.21436 12.8868 5.02959 12.8868 7.43721C12.8868 7.45859 12.8915 7.47881 12.8921 7.4999H12.8868V10.7141H15.0296V10.4486C16.3705 11.2048 18.2467 11.6595 20.3868 11.6595C22.3612 11.6595 24.1055 11.2689 25.4174 10.6153C25.6207 10.8257 25.7441 11.0349 25.7441 11.2183C25.7441 12.0459 23.6074 13.2978 20.3868 13.2978H18.2447V15.4405H20.3868C22.3615 15.4405 24.1064 15.05 25.4183 14.3961C25.6219 14.6062 25.7438 14.8153 25.7438 14.9996C25.7438 15.8278 23.6072 17.0797 20.3865 17.0797L19.6281 17.0832C19.1619 17.0873 18.7105 17.0917 18.2704 17.08L18.218 19.2219C18.4535 19.2277 18.692 19.2298 18.9352 19.2298C19.1675 19.2298 19.4039 19.2283 19.6442 19.2263L20.3865 19.2228C22.3623 19.2228 24.1078 18.8316 25.42 18.1771C25.6242 18.389 25.7435 18.5993 25.7435 18.7812C25.7435 19.6095 23.6069 20.8613 20.3863 20.8613H18.2441V23.0041H20.3863C22.362 23.0041 24.1073 22.613 25.4198 21.9585C25.6242 22.17 25.7435 22.3804 25.7435 22.5626C25.7435 23.3908 23.6069 24.6427 20.3863 24.6427H18.2441V26.7854H20.3863C24.6621 26.7854 27.8863 24.9702 27.8863 22.5626C27.8863 22.5427 27.8836 22.5201 27.883 22.4999H27.8863V7.4999H27.881C27.8819 7.47881 27.8868 7.4583 27.8868 7.43721ZM15.0296 7.43721C15.0296 6.60898 17.1662 5.35713 20.3868 5.35713C23.6074 5.35713 25.7441 6.60898 25.7441 7.43721C25.7441 8.26484 23.6074 9.5167 20.3868 9.5167C17.1662 9.5167 15.0296 8.26484 15.0296 7.43721Z" fill="#121213" stroke="#121213" stroke-width="0.00064"/>
<path d="M9.67236 10.7141C5.39648 10.7141 2.17236 12.5293 2.17236 14.937C2.17236 14.9584 2.17705 14.9786 2.17764 14.9997H2.17236V22.4997C2.17236 24.9073 5.39648 26.7225 9.67236 26.7225C13.9482 26.7225 17.1724 24.9073 17.1724 22.4997V15H17.1671C17.1677 14.9789 17.1724 14.9583 17.1724 14.9373C17.1724 12.5296 13.9482 10.7141 9.67236 10.7141ZM4.31514 18.7186C4.31514 18.5334 4.43613 18.3246 4.63975 18.1145C5.95195 18.7687 7.69717 19.1595 9.67236 19.1595C11.6467 19.1595 13.391 18.769 14.7029 18.1154C14.9062 18.3257 15.0296 18.5349 15.0296 18.7183C15.0296 19.5459 12.893 20.7978 9.67236 20.7978C6.45176 20.7978 4.31514 19.5462 4.31514 18.7186ZM9.67236 12.8572C12.893 12.8572 15.0296 14.109 15.0296 14.9373C15.0296 15.7649 12.893 17.0167 9.67236 17.0167C6.45176 17.0167 4.31514 15.7649 4.31514 14.9373C4.31514 14.109 6.45176 12.8572 9.67236 12.8572ZM9.67236 24.58C6.45176 24.58 4.31514 23.3282 4.31514 22.5C4.31514 22.3157 4.4373 22.1065 4.64062 21.8964C5.95283 22.5503 7.69746 22.9412 9.67236 22.9412C11.647 22.9412 13.3919 22.5506 14.7038 21.8967C14.9074 22.1068 15.0293 22.316 15.0293 22.5002C15.0296 23.3282 12.893 24.58 9.67236 24.58Z" fill="#121213" stroke="#121213" stroke-width="0.00064"/>
</svg>
