<svg width="150" height="26" viewBox="0 0 150 26" fill="none" xmlns="http://www.w3.org/2000/svg">
<path fill-rule="evenodd" clip-rule="evenodd" d="M0.174902 1.01829C0.0243959 1.15637 -0.0352902 1.36756 0.0206819 1.56399C3.79067 14.7946 7.27017 19.2251 11.1794 21.1473C12.6515 21.8711 14.1812 22.2304 15.7143 22.5905C16.1696 22.6974 16.6251 22.8043 17.0795 22.921C19.0875 23.4363 21.1992 24.1595 23.5213 25.8928C23.6648 25.9999 23.852 26.0289 24.0212 25.9702C24.1903 25.9114 24.3194 25.7727 24.3656 25.5997C25.0273 23.1262 25.1451 21.1768 24.8407 19.6051C24.5337 18.0203 23.8035 16.8524 22.8335 15.9433C21.8752 15.0452 20.6936 14.4102 19.4992 13.8627C19.0082 13.6377 18.5267 13.432 18.0528 13.2295C17.337 12.9237 16.6388 12.6254 15.9524 12.2796C14.7021 11.6497 13.3728 10.3773 12.3126 9.36239C12.2826 9.3337 12.2529 9.30522 12.2233 9.27697C11.7189 8.79433 11.237 8.33505 10.8941 8.12412C10.8044 8.06893 10.6861 8.00592 10.553 7.97459C10.4186 7.94293 10.1813 7.92628 9.97044 8.09586C9.77543 8.25269 9.72979 8.47037 9.71758 8.59235C9.70427 8.72525 9.71827 8.86412 9.74025 8.99265C10.0553 10.8347 10.9601 11.8416 11.8623 12.7705C11.9152 12.825 11.968 12.8791 12.0206 12.9331C12.4807 13.4048 12.9302 13.8657 13.3267 14.4279C10.8619 12.6693 9.69136 10.5479 8.50211 8.3925C8.4362 8.27305 8.37024 8.1535 8.30399 8.0339C6.79399 5.30772 5.1482 2.59259 0.731834 0.911572C0.54095 0.838915 0.325406 0.880218 0.174902 1.01829ZM7.57078 8.9395C8.99421 11.5217 10.525 14.2987 14.4254 16.3694C14.6216 16.4736 14.8617 16.4468 15.0302 16.302C15.1988 16.1573 15.2614 15.924 15.188 15.7142C14.5963 14.024 13.6438 13.0493 12.8082 12.1942C12.7504 12.1351 12.6932 12.0765 12.6367 12.0184C11.9383 11.2993 11.3402 10.6324 11.0003 9.606C11.1421 9.73766 11.3009 9.88854 11.477 10.057C11.5212 10.0994 11.5663 10.1426 11.6122 10.1865C12.6363 11.1677 14.0674 12.5388 15.4667 13.2437C16.171 13.5985 16.9379 13.927 17.6861 14.2474C18.1545 14.4479 18.6156 14.6454 19.0494 14.8442C20.2143 15.3781 21.2671 15.9549 22.0953 16.7311C22.9118 17.4963 23.5202 18.4649 23.7808 19.8104C24.0151 21.0201 23.973 22.5598 23.5123 24.5601C21.2913 23.0448 19.2471 22.3627 17.3479 21.8753C16.844 21.7459 16.3573 21.6314 15.8841 21.52C14.3775 21.1655 13.0074 20.8431 11.6558 20.1785C8.29134 18.5241 5.0086 14.6888 1.37373 2.35459C4.66425 3.89897 6.01716 6.13335 7.3596 8.557C7.42991 8.68395 7.50022 8.81149 7.57078 8.9395Z" fill="#86B737"/>
<path fill-rule="evenodd" clip-rule="evenodd" d="M3.20838 4.70059C3.12814 4.74445 3.07766 4.82806 3.07623 4.9195C3.05577 6.22345 3.14853 7.14594 3.48217 8.065C3.81275 8.97563 4.37394 9.86571 5.25521 11.1129C5.36351 11.2926 5.47209 11.4679 5.58093 11.6389C6.32748 12.8121 7.08601 13.7841 7.84985 14.5939C10.8661 17.7915 13.9455 18.4318 16.5647 18.9764C16.9117 19.0485 17.2506 19.119 17.5801 19.1935C18.9919 19.5126 20.215 19.9004 21.2193 20.775C22.2197 21.6463 23.0326 23.0279 23.5574 25.3943C23.5878 25.5312 23.7235 25.6176 23.8604 25.5872C23.9974 25.5569 24.0838 25.4212 24.0534 25.2842C23.5139 22.8515 22.6614 21.3572 21.5529 20.3919C20.4482 19.4299 19.1189 19.0204 17.6922 18.6979C17.3553 18.6218 17.012 18.5502 16.6631 18.4774C14.0566 17.9337 11.1358 17.3245 8.24119 14.2683C7.75498 13.3857 7.68637 12.56 7.61834 11.7412C7.59558 11.4673 7.57289 11.1943 7.53466 10.9201C7.45933 10.3798 7.3194 9.8475 6.96738 9.35756C6.63431 8.89399 6.12692 8.48962 5.35525 8.14354C5.2776 7.47264 5.20276 6.86702 4.96696 6.31974C4.70755 5.71765 4.26297 5.20253 3.464 4.70754C3.38626 4.65938 3.28863 4.65673 3.20838 4.70059ZM5.42663 8.74148C5.97454 9.02478 6.32375 9.33244 6.5548 9.65401C6.83874 10.0492 6.96163 10.4892 7.03149 10.9902C7.06312 11.2171 7.083 11.4598 7.10389 11.7148C7.1412 12.1703 7.18176 12.6654 7.29833 13.1811C6.87239 12.6467 6.44766 12.0528 6.0256 11.3913C5.66829 10.3509 5.52207 9.48792 5.42663 8.74148ZM5.12414 10.0293C4.9914 9.39578 4.92455 8.84025 4.86738 8.34729L4.86197 8.30063C4.77744 7.57113 4.71288 7.01398 4.50038 6.52077C4.331 6.12765 4.06175 5.76483 3.58228 5.40242C3.59156 6.42401 3.69558 7.16401 3.95972 7.89164C4.19564 8.54152 4.56285 9.19192 5.12414 10.0293Z" fill="#86B737"/>
<path d="M41.62 21C41.3267 21 41.08 20.9 40.88 20.7C40.68 20.5 40.58 20.2533 40.58 19.96V5.38H42.66V19.96C42.66 20.2533 42.56 20.5 42.36 20.7C42.16 20.9 41.9133 21 41.62 21ZM36.26 7.3C35.98 7.3 35.7467 7.21333 35.56 7.04C35.3867 6.85333 35.3 6.62 35.3 6.34C35.3 6.06 35.3867 5.83333 35.56 5.66C35.7467 5.47333 35.98 5.38 36.26 5.38H46.96C47.24 5.38 47.4667 5.47333 47.64 5.66C47.8267 5.83333 47.92 6.06 47.92 6.34C47.92 6.62 47.8267 6.85333 47.64 7.04C47.4667 7.21333 47.24 7.3 46.96 7.3H36.26ZM51.6148 21.1C50.6948 21.1 49.8682 20.9067 49.1348 20.52C48.4148 20.12 47.8415 19.54 47.4148 18.78C47.0015 18.02 46.7948 17.0867 46.7948 15.98V11.06C46.7948 10.7667 46.8882 10.5267 47.0748 10.34C47.2748 10.14 47.5215 10.04 47.8148 10.04C48.1082 10.04 48.3482 10.14 48.5348 10.34C48.7348 10.5267 48.8348 10.7667 48.8348 11.06V15.98C48.8348 16.7267 48.9748 17.3467 49.2548 17.84C49.5348 18.32 49.9148 18.68 50.3948 18.92C50.8748 19.1467 51.4148 19.26 52.0148 19.26C52.5882 19.26 53.0948 19.1467 53.5348 18.92C53.9882 18.6933 54.3482 18.3867 54.6148 18C54.8815 17.6133 55.0148 17.18 55.0148 16.7H56.2748C56.2748 17.5267 56.0682 18.2733 55.6548 18.94C55.2548 19.6067 54.7015 20.1333 53.9948 20.52C53.3015 20.9067 52.5082 21.1 51.6148 21.1ZM56.0348 21C55.7415 21 55.4948 20.9067 55.2948 20.72C55.1082 20.52 55.0148 20.2733 55.0148 19.98V11.06C55.0148 10.7533 55.1082 10.5067 55.2948 10.32C55.4948 10.1333 55.7415 10.04 56.0348 10.04C56.3415 10.04 56.5882 10.1333 56.7748 10.32C56.9615 10.5067 57.0548 10.7533 57.0548 11.06V19.98C57.0548 20.2733 56.9615 20.52 56.7748 20.72C56.5882 20.9067 56.3415 21 56.0348 21ZM75.0077 21.02C74.7143 21.02 74.4677 20.9267 74.2677 20.74C74.081 20.54 73.9877 20.2933 73.9877 20V14.28C73.9877 13.44 73.781 12.82 73.3677 12.42C72.9543 12.0067 72.4143 11.8 71.7477 11.8C71.0543 11.8 70.481 12.04 70.0277 12.52C69.5877 13 69.3677 13.6133 69.3677 14.36H67.7077C67.7077 13.4933 67.8943 12.7333 68.2677 12.08C68.641 11.4133 69.161 10.8933 69.8277 10.52C70.5077 10.1467 71.281 9.96 72.1477 9.96C72.9077 9.96 73.581 10.1267 74.1677 10.46C74.7543 10.7933 75.2077 11.2867 75.5277 11.94C75.861 12.58 76.0277 13.36 76.0277 14.28V20C76.0277 20.2933 75.9343 20.54 75.7477 20.74C75.561 20.9267 75.3143 21.02 75.0077 21.02ZM61.6677 21.02C61.3743 21.02 61.1277 20.9267 60.9277 20.74C60.741 20.54 60.6477 20.2933 60.6477 20V11.1C60.6477 10.7933 60.741 10.5467 60.9277 10.36C61.1277 10.1733 61.3743 10.08 61.6677 10.08C61.9743 10.08 62.221 10.1733 62.4077 10.36C62.5943 10.5467 62.6877 10.7933 62.6877 11.1V20C62.6877 20.2933 62.5943 20.54 62.4077 20.74C62.221 20.9267 61.9743 21.02 61.6677 21.02ZM68.3477 21.02C68.0543 21.02 67.8077 20.9267 67.6077 20.74C67.421 20.54 67.3277 20.2933 67.3277 20V14.28C67.3277 13.44 67.121 12.82 66.7077 12.42C66.2943 12.0067 65.7543 11.8 65.0877 11.8C64.3943 11.8 63.821 12.04 63.3677 12.52C62.9143 13 62.6877 13.6133 62.6877 14.36H61.4277C61.4277 13.4933 61.601 12.7333 61.9477 12.08C62.2943 11.4133 62.7743 10.8933 63.3877 10.52C64.001 10.1467 64.701 9.96 65.4877 9.96C66.2477 9.96 66.921 10.1267 67.5077 10.46C68.0943 10.7933 68.5477 11.2867 68.8677 11.94C69.201 12.58 69.3677 13.36 69.3677 14.28V20C69.3677 20.2933 69.2743 20.54 69.0877 20.74C68.901 20.9267 68.6543 21.02 68.3477 21.02ZM84.9172 21.08C83.8772 21.08 82.9439 20.84 82.1172 20.36C81.2905 19.8667 80.6372 19.2 80.1572 18.36C79.6772 17.52 79.4305 16.5733 79.4172 15.52V6.4C79.4172 6.09333 79.5105 5.84667 79.6972 5.66C79.8972 5.47333 80.1439 5.38 80.4372 5.38C80.7439 5.38 80.9905 5.47333 81.1772 5.66C81.3639 5.84667 81.4572 6.09333 81.4572 6.4V11.8C81.9239 11.24 82.4839 10.8 83.1372 10.48C83.8039 10.1467 84.5305 9.98 85.3172 9.98C86.2905 9.98 87.1639 10.2267 87.9372 10.72C88.7105 11.2 89.3172 11.86 89.7572 12.7C90.2105 13.5267 90.4372 14.4667 90.4372 15.52C90.4372 16.5733 90.1905 17.52 89.6972 18.36C89.2172 19.2 88.5639 19.8667 87.7372 20.36C86.9105 20.84 85.9705 21.08 84.9172 21.08ZM84.9172 19.28C85.5972 19.28 86.2039 19.12 86.7372 18.8C87.2705 18.4667 87.6905 18.0133 87.9972 17.44C88.3172 16.8667 88.4772 16.2267 88.4772 15.52C88.4772 14.8 88.3172 14.16 87.9972 13.6C87.6905 13.04 87.2705 12.6 86.7372 12.28C86.2039 11.9467 85.5972 11.78 84.9172 11.78C84.2505 11.78 83.6439 11.9467 83.0972 12.28C82.5639 12.6 82.1439 13.04 81.8372 13.6C81.5305 14.16 81.3772 14.8 81.3772 15.52C81.3772 16.2267 81.5305 16.8667 81.8372 17.44C82.1439 18.0133 82.5639 18.4667 83.0972 18.8C83.6439 19.12 84.2505 19.28 84.9172 19.28ZM98.0797 21.1C97.1597 21.1 96.333 20.9067 95.5997 20.52C94.8797 20.12 94.3064 19.54 93.8797 18.78C93.4664 18.02 93.2597 17.0867 93.2597 15.98V11.06C93.2597 10.7667 93.353 10.5267 93.5397 10.34C93.7397 10.14 93.9864 10.04 94.2797 10.04C94.573 10.04 94.813 10.14 94.9997 10.34C95.1997 10.5267 95.2997 10.7667 95.2997 11.06V15.98C95.2997 16.7267 95.4397 17.3467 95.7197 17.84C95.9997 18.32 96.3797 18.68 96.8597 18.92C97.3397 19.1467 97.8797 19.26 98.4797 19.26C99.053 19.26 99.5597 19.1467 99.9997 18.92C100.453 18.6933 100.813 18.3867 101.08 18C101.346 17.6133 101.48 17.18 101.48 16.7H102.74C102.74 17.5267 102.533 18.2733 102.12 18.94C101.72 19.6067 101.166 20.1333 100.46 20.52C99.7664 20.9067 98.973 21.1 98.0797 21.1ZM102.5 21C102.206 21 101.96 20.9067 101.76 20.72C101.573 20.52 101.48 20.2733 101.48 19.98V11.06C101.48 10.7533 101.573 10.5067 101.76 10.32C101.96 10.1333 102.206 10.04 102.5 10.04C102.806 10.04 103.053 10.1333 103.24 10.32C103.426 10.5067 103.52 10.7533 103.52 11.06V19.98C103.52 20.2733 103.426 20.52 103.24 20.72C103.053 20.9067 102.806 21 102.5 21ZM108.133 17.02C107.839 17.02 107.593 16.9267 107.393 16.74C107.206 16.54 107.113 16.2933 107.113 16V6.4C107.113 6.09333 107.206 5.84667 107.393 5.66C107.593 5.47333 107.839 5.38 108.133 5.38C108.439 5.38 108.686 5.47333 108.873 5.66C109.059 5.84667 109.153 6.09333 109.153 6.4V16C109.153 16.2933 109.059 16.54 108.873 16.74C108.686 16.9267 108.439 17.02 108.133 17.02ZM116.353 21.02C116.059 21.02 115.813 20.9267 115.613 20.74C115.426 20.54 115.333 20.2933 115.333 20V15.08C115.333 14.32 115.193 13.7 114.913 13.22C114.633 12.74 114.253 12.3867 113.773 12.16C113.306 11.92 112.766 11.8 112.153 11.8C111.593 11.8 111.086 11.9133 110.633 12.14C110.179 12.3667 109.819 12.6733 109.553 13.06C109.286 13.4333 109.153 13.8667 109.153 14.36H107.893C107.893 13.52 108.093 12.7733 108.493 12.12C108.906 11.4533 109.466 10.9267 110.173 10.54C110.879 10.1533 111.673 9.96 112.553 9.96C113.473 9.96 114.293 10.16 115.013 10.56C115.746 10.9467 116.319 11.52 116.733 12.28C117.159 13.04 117.373 13.9733 117.373 15.08V20C117.373 20.2933 117.273 20.54 117.072 20.74C116.886 20.9267 116.646 21.02 116.353 21.02ZM108.133 21.02C107.839 21.02 107.593 20.9267 107.393 20.74C107.206 20.54 107.113 20.2933 107.113 20V11.08C107.113 10.7733 107.206 10.5267 107.393 10.34C107.593 10.1533 107.839 10.06 108.133 10.06C108.439 10.06 108.686 10.1533 108.873 10.34C109.059 10.5267 109.153 10.7733 109.153 11.08V20C109.153 20.2933 109.059 20.54 108.873 20.74C108.686 20.9267 108.439 21.02 108.133 21.02ZM122.005 21C121.712 21 121.465 20.9 121.265 20.7C121.065 20.5 120.965 20.2533 120.965 19.96V6.42C120.965 6.11333 121.065 5.86667 121.265 5.68C121.465 5.48 121.712 5.38 122.005 5.38C122.312 5.38 122.558 5.48 122.745 5.68C122.945 5.86667 123.045 6.11333 123.045 6.42V19.96C123.045 20.2533 122.945 20.5 122.745 20.7C122.558 20.9 122.312 21 122.005 21ZM136.079 21.02C135.786 21.02 135.539 20.9267 135.339 20.74C135.152 20.54 135.059 20.2933 135.059 20V15.08C135.059 14.32 134.919 13.7 134.639 13.22C134.359 12.74 133.979 12.3867 133.499 12.16C133.032 11.92 132.492 11.8 131.879 11.8C131.319 11.8 130.812 11.9133 130.359 12.14C129.906 12.3667 129.546 12.6733 129.279 13.06C129.012 13.4333 128.879 13.8667 128.879 14.36H127.619C127.619 13.52 127.819 12.7733 128.219 12.12C128.632 11.4533 129.192 10.9267 129.899 10.54C130.606 10.1533 131.399 9.96 132.279 9.96C133.199 9.96 134.019 10.16 134.739 10.56C135.472 10.9467 136.046 11.52 136.459 12.28C136.886 13.04 137.099 13.9733 137.099 15.08V20C137.099 20.2933 136.999 20.54 136.799 20.74C136.612 20.9267 136.372 21.02 136.079 21.02ZM127.859 21.02C127.566 21.02 127.319 20.9267 127.119 20.74C126.932 20.54 126.839 20.2933 126.839 20V11.08C126.839 10.7733 126.932 10.5267 127.119 10.34C127.319 10.1533 127.566 10.06 127.859 10.06C128.166 10.06 128.412 10.1533 128.599 10.34C128.786 10.5267 128.879 10.7733 128.879 11.08V20C128.879 20.2933 128.786 20.54 128.599 20.74C128.412 20.9267 128.166 21.02 127.859 21.02Z" fill="#86B737"/>
</svg>
