<svg width="9" height="13" viewBox="0 0 9 13" fill="none" xmlns="http://www.w3.org/2000/svg">
<path d="M4.5 12.75C4.35417 12.75 4.22917 12.7083 4.125 12.625C4.02083 12.5417 3.94271 12.4323 3.89063 12.2969C3.69271 11.7135 3.44271 11.1667 3.14063 10.6562C2.84896 10.1458 2.4375 9.54687 1.90625 8.85937C1.375 8.17187 0.942709 7.51562 0.609375 6.89062C0.286458 6.26562 0.125 5.51042 0.125 4.625C0.125 3.40625 0.546875 2.375 1.39063 1.53125C2.24479 0.677083 3.28125 0.25 4.5 0.25C5.71875 0.25 6.75 0.677083 7.59375 1.53125C8.44792 2.375 8.875 3.40625 8.875 4.625C8.875 5.57292 8.69271 6.36458 8.32812 7C7.97396 7.625 7.5625 8.24479 7.09375 8.85937C6.53125 9.60937 6.10417 10.2344 5.8125 10.7344C5.53125 11.224 5.29688 11.7448 5.10938 12.2969C5.05729 12.4427 4.97396 12.5573 4.85938 12.6406C4.75521 12.7135 4.63542 12.75 4.5 12.75ZM4.5 10.5156C4.67708 10.1615 4.875 9.8125 5.09375 9.46875C5.32292 9.125 5.65625 8.66667 6.09375 8.09375C6.54167 7.51042 6.90625 6.97396 7.1875 6.48437C7.47917 5.98437 7.625 5.36458 7.625 4.625C7.625 3.76042 7.31771 3.02604 6.70313 2.42187C6.09896 1.80729 5.36458 1.5 4.5 1.5C3.63542 1.5 2.89583 1.80729 2.28125 2.42187C1.67708 3.02604 1.375 3.76042 1.375 4.625C1.375 5.36458 1.51563 5.98437 1.79688 6.48437C2.08854 6.97396 2.45833 7.51042 2.90625 8.09375C3.34375 8.66667 3.67188 9.125 3.89063 9.46875C4.11979 9.8125 4.32292 10.1615 4.5 10.5156ZM4.5 6.1875C4.9375 6.1875 5.30729 6.03646 5.60937 5.73437C5.91146 5.43229 6.0625 5.0625 6.0625 4.625C6.0625 4.1875 5.91146 3.81771 5.60937 3.51562C5.30729 3.21354 4.9375 3.0625 4.5 3.0625C4.0625 3.0625 3.69271 3.21354 3.39063 3.51562C3.08854 3.81771 2.9375 4.1875 2.9375 4.625C2.9375 5.0625 3.08854 5.43229 3.39063 5.73437C3.69271 6.03646 4.0625 6.1875 4.5 6.1875Z" fill="#5E8425"/>
</svg>
