<svg width="430" height="387" viewBox="0 0 430 387" fill="none" xmlns="http://www.w3.org/2000/svg">
<path fill-rule="evenodd" clip-rule="evenodd" d="M91.749 21.2325C90.244 22.4306 89.6471 24.2631 90.2068 25.9675C127.907 140.77 162.702 179.214 201.794 195.893C216.515 202.174 231.812 205.291 247.143 208.415C251.696 209.343 256.251 210.271 260.795 211.283C280.875 215.755 301.992 222.029 325.213 237.07C326.648 237.999 328.52 238.25 330.212 237.741C331.903 237.231 333.194 236.027 333.656 234.526C340.273 213.064 341.451 196.149 338.407 182.511C335.337 168.76 328.035 158.625 318.335 150.738C308.752 142.945 296.936 137.434 284.992 132.684C280.082 130.732 275.267 128.947 270.528 127.19C263.37 124.536 256.388 121.948 249.524 118.947C237.021 113.481 223.728 102.441 213.126 93.6346C212.826 93.3857 212.529 93.1386 212.233 92.8934C207.189 88.7055 202.37 84.7203 198.941 82.89C198.044 82.4112 196.861 81.8645 195.53 81.5926C194.186 81.3179 191.813 81.1734 189.704 82.6448C187.754 84.0057 187.298 85.8945 187.176 86.9529C187.043 88.1061 187.183 89.3111 187.403 90.4263C190.553 106.41 199.601 115.147 208.623 123.207C209.152 123.68 209.68 124.15 210.206 124.618C214.807 128.71 219.302 132.71 223.267 137.588C198.619 122.329 186.914 103.921 175.021 85.2188C174.362 84.1824 173.702 83.145 173.04 82.1072C157.94 58.4521 141.482 34.8927 97.3183 20.3065C95.4095 19.676 93.2541 20.0344 91.749 21.2325ZM165.708 89.9652C179.942 112.371 195.25 136.468 234.254 154.434C236.216 155.339 238.617 155.107 240.302 153.85C241.988 152.594 242.614 150.57 241.88 148.75C235.963 134.083 226.438 125.626 218.082 118.206C217.504 117.693 216.932 117.185 216.367 116.681C209.383 110.441 203.402 104.654 200.003 95.7484C201.421 96.8909 203.009 98.2 204.77 99.6621C205.212 100.029 205.663 100.404 206.122 100.786C216.363 109.299 230.674 121.196 244.667 127.313C251.71 130.392 259.379 133.242 266.861 136.022C271.545 137.762 276.156 139.475 280.494 141.2C292.143 145.833 302.671 150.838 310.953 157.573C319.118 164.213 325.202 172.617 327.808 184.293C330.151 194.789 329.73 208.149 325.123 225.505C302.913 212.357 282.471 206.439 263.479 202.209C258.44 201.087 253.573 200.093 248.841 199.127C233.775 196.051 220.074 193.253 206.558 187.486C172.913 173.132 140.086 139.853 103.737 32.8276C136.642 46.2282 150.172 65.6161 163.596 86.6462C164.299 87.7477 165.002 88.8544 165.708 89.9652Z" fill="#86B737"/>
<path fill-rule="evenodd" clip-rule="evenodd" d="M122.084 53.1839C121.281 53.5645 120.777 54.29 120.762 55.0835C120.558 66.3979 121.485 74.4024 124.822 82.3771C128.127 90.2786 133.739 98.0019 142.552 108.824C143.635 110.383 144.721 111.904 145.809 113.388C153.275 123.568 160.86 132.002 168.499 139.028C198.661 166.775 229.455 172.33 255.647 177.056C259.117 177.682 262.506 178.293 265.801 178.939C279.919 181.708 292.15 185.074 302.193 192.662C312.197 200.222 320.326 212.211 325.574 232.744C325.878 233.932 327.235 234.682 328.604 234.418C329.974 234.155 330.838 232.978 330.534 231.789C325.139 210.681 316.614 197.714 305.529 189.338C294.482 180.99 281.189 177.438 266.922 174.64C263.553 173.979 260.12 173.358 256.631 172.726C230.566 168.009 201.358 162.722 172.412 136.203C167.55 128.545 166.864 121.381 166.183 114.276C165.956 111.899 165.729 109.53 165.347 107.151C164.593 102.463 163.194 97.8439 159.674 93.5927C156.343 89.5703 151.269 86.0615 143.552 83.0586C142.776 77.2371 142.028 71.9822 139.67 67.2334C137.075 62.009 132.63 57.5393 124.64 53.2443C123.863 52.8264 122.886 52.8033 122.084 53.1839ZM144.266 88.2469C149.745 90.7051 153.238 93.3747 155.548 96.165C158.387 99.5941 159.616 103.412 160.315 107.76C160.631 109.728 160.83 111.834 161.039 114.047C161.412 117.999 161.818 122.295 162.983 126.77C158.724 122.133 154.477 116.979 150.256 111.24C146.683 102.212 145.221 94.7238 144.266 88.2469ZM141.241 99.4214C139.914 93.9243 139.246 89.1039 138.674 84.8265L138.62 84.4217C137.774 78.0917 137.129 73.2573 135.004 68.9777C133.31 65.5666 130.617 62.4184 125.823 59.2738C125.916 68.1381 126.956 74.5592 129.597 80.8728C131.956 86.5119 135.629 92.1554 141.241 99.4214Z" fill="#86B737"/>
<path d="M72.8817 328C72.1777 328 71.5857 327.76 71.1057 327.28C70.6257 326.8 70.3857 326.208 70.3857 325.504V290.512H75.3777V325.504C75.3777 326.208 75.1377 326.8 74.6577 327.28C74.1777 327.76 73.5857 328 72.8817 328ZM60.0177 295.12C59.3457 295.12 58.7857 294.912 58.3377 294.496C57.9217 294.048 57.7137 293.488 57.7137 292.816C57.7137 292.144 57.9217 291.6 58.3377 291.184C58.7857 290.736 59.3457 290.512 60.0177 290.512H85.6977C86.3697 290.512 86.9137 290.736 87.3297 291.184C87.7777 291.6 88.0017 292.144 88.0017 292.816C88.0017 293.488 87.7777 294.048 87.3297 294.496C86.9137 294.912 86.3697 295.12 85.6977 295.12H60.0177ZM106.469 328.24C104.261 328.24 102.277 327.776 100.517 326.848C98.7894 325.888 97.4134 324.496 96.3894 322.672C95.3974 320.848 94.9014 318.608 94.9014 315.952V304.144C94.9014 303.44 95.1254 302.864 95.5734 302.416C96.0534 301.936 96.6454 301.696 97.3494 301.696C98.0534 301.696 98.6294 301.936 99.0774 302.416C99.5574 302.864 99.7974 303.44 99.7974 304.144V315.952C99.7974 317.744 100.133 319.232 100.805 320.416C101.477 321.568 102.389 322.432 103.541 323.008C104.693 323.552 105.989 323.824 107.429 323.824C108.805 323.824 110.021 323.552 111.077 323.008C112.165 322.464 113.029 321.728 113.669 320.8C114.309 319.872 114.629 318.832 114.629 317.68H117.653C117.653 319.664 117.157 321.456 116.165 323.056C115.205 324.656 113.877 325.92 112.181 326.848C110.517 327.776 108.613 328.24 106.469 328.24ZM117.077 328C116.373 328 115.781 327.776 115.301 327.328C114.853 326.848 114.629 326.256 114.629 325.552V304.144C114.629 303.408 114.853 302.816 115.301 302.368C115.781 301.92 116.373 301.696 117.077 301.696C117.813 301.696 118.405 301.92 118.853 302.368C119.301 302.816 119.525 303.408 119.525 304.144V325.552C119.525 326.256 119.301 326.848 118.853 327.328C118.405 327.776 117.813 328 117.077 328ZM172.212 328.048C171.508 328.048 170.916 327.824 170.436 327.376C169.988 326.896 169.764 326.304 169.764 325.6V311.872C169.764 309.856 169.268 308.368 168.276 307.408C167.284 306.416 165.988 305.92 164.388 305.92C162.724 305.92 161.348 306.496 160.26 307.648C159.204 308.8 158.676 310.272 158.676 312.064H154.692C154.692 309.984 155.14 308.16 156.036 306.592C156.932 304.992 158.18 303.744 159.78 302.848C161.412 301.952 163.268 301.504 165.348 301.504C167.172 301.504 168.788 301.904 170.196 302.704C171.604 303.504 172.692 304.688 173.46 306.256C174.26 307.792 174.66 309.664 174.66 311.872V325.6C174.66 326.304 174.436 326.896 173.988 327.376C173.54 327.824 172.948 328.048 172.212 328.048ZM140.196 328.048C139.492 328.048 138.9 327.824 138.42 327.376C137.972 326.896 137.748 326.304 137.748 325.6V304.24C137.748 303.504 137.972 302.912 138.42 302.464C138.9 302.016 139.492 301.792 140.196 301.792C140.932 301.792 141.524 302.016 141.972 302.464C142.42 302.912 142.644 303.504 142.644 304.24V325.6C142.644 326.304 142.42 326.896 141.972 327.376C141.524 327.824 140.932 328.048 140.196 328.048ZM156.228 328.048C155.524 328.048 154.932 327.824 154.452 327.376C154.004 326.896 153.78 326.304 153.78 325.6V311.872C153.78 309.856 153.284 308.368 152.292 307.408C151.3 306.416 150.004 305.92 148.404 305.92C146.74 305.92 145.364 306.496 144.276 307.648C143.188 308.8 142.644 310.272 142.644 312.064H139.62C139.62 309.984 140.036 308.16 140.868 306.592C141.7 304.992 142.852 303.744 144.324 302.848C145.796 301.952 147.476 301.504 149.364 301.504C151.188 301.504 152.804 301.904 154.212 302.704C155.62 303.504 156.708 304.688 157.476 306.256C158.276 307.792 158.676 309.664 158.676 311.872V325.6C158.676 326.304 158.452 326.896 158.004 327.376C157.556 327.824 156.964 328.048 156.228 328.048ZM205.595 328.192C203.099 328.192 200.859 327.616 198.875 326.464C196.891 325.28 195.323 323.68 194.171 321.664C193.019 319.648 192.427 317.376 192.395 314.848V292.96C192.395 292.224 192.619 291.632 193.067 291.184C193.547 290.736 194.139 290.512 194.843 290.512C195.579 290.512 196.171 290.736 196.619 291.184C197.067 291.632 197.291 292.224 197.291 292.96V305.92C198.411 304.576 199.755 303.52 201.323 302.752C202.923 301.952 204.667 301.552 206.555 301.552C208.891 301.552 210.987 302.144 212.843 303.328C214.699 304.48 216.155 306.064 217.211 308.08C218.299 310.064 218.843 312.32 218.843 314.848C218.843 317.376 218.251 319.648 217.067 321.664C215.915 323.68 214.347 325.28 212.363 326.464C210.379 327.616 208.123 328.192 205.595 328.192ZM205.595 323.872C207.227 323.872 208.683 323.488 209.963 322.72C211.243 321.92 212.251 320.832 212.987 319.456C213.755 318.08 214.139 316.544 214.139 314.848C214.139 313.12 213.755 311.584 212.987 310.24C212.251 308.896 211.243 307.84 209.963 307.072C208.683 306.272 207.227 305.872 205.595 305.872C203.995 305.872 202.539 306.272 201.227 307.072C199.947 307.84 198.939 308.896 198.203 310.24C197.467 311.584 197.099 313.12 197.099 314.848C197.099 316.544 197.467 318.08 198.203 319.456C198.939 320.832 199.947 321.92 201.227 322.72C202.539 323.488 203.995 323.872 205.595 323.872ZM246.785 328.24C244.577 328.24 242.593 327.776 240.833 326.848C239.105 325.888 237.729 324.496 236.705 322.672C235.713 320.848 235.217 318.608 235.217 315.952V304.144C235.217 303.44 235.441 302.864 235.889 302.416C236.369 301.936 236.961 301.696 237.665 301.696C238.369 301.696 238.945 301.936 239.393 302.416C239.873 302.864 240.113 303.44 240.113 304.144V315.952C240.113 317.744 240.449 319.232 241.121 320.416C241.793 321.568 242.705 322.432 243.857 323.008C245.009 323.552 246.305 323.824 247.745 323.824C249.121 323.824 250.337 323.552 251.393 323.008C252.481 322.464 253.345 321.728 253.985 320.8C254.625 319.872 254.945 318.832 254.945 317.68H257.969C257.969 319.664 257.473 321.456 256.481 323.056C255.521 324.656 254.193 325.92 252.497 326.848C250.833 327.776 248.929 328.24 246.785 328.24ZM257.393 328C256.689 328 256.097 327.776 255.617 327.328C255.169 326.848 254.945 326.256 254.945 325.552V304.144C254.945 303.408 255.169 302.816 255.617 302.368C256.097 301.92 256.689 301.696 257.393 301.696C258.129 301.696 258.721 301.92 259.169 302.368C259.617 302.816 259.841 303.408 259.841 304.144V325.552C259.841 326.256 259.617 326.848 259.169 327.328C258.721 327.776 258.129 328 257.393 328ZM280.512 318.448C279.808 318.448 279.216 318.224 278.736 317.776C278.288 317.296 278.064 316.704 278.064 316V292.96C278.064 292.224 278.288 291.632 278.736 291.184C279.216 290.736 279.808 290.512 280.512 290.512C281.248 290.512 281.84 290.736 282.288 291.184C282.736 291.632 282.96 292.224 282.96 292.96V316C282.96 316.704 282.736 317.296 282.288 317.776C281.84 318.224 281.248 318.448 280.512 318.448ZM300.24 328.048C299.536 328.048 298.944 327.824 298.464 327.376C298.016 326.896 297.792 326.304 297.792 325.6V313.792C297.792 311.968 297.456 310.48 296.784 309.328C296.112 308.176 295.2 307.328 294.048 306.784C292.928 306.208 291.632 305.92 290.16 305.92C288.816 305.92 287.6 306.192 286.512 306.736C285.424 307.28 284.56 308.016 283.92 308.944C283.28 309.84 282.96 310.88 282.96 312.064H279.936C279.936 310.048 280.416 308.256 281.376 306.688C282.368 305.088 283.712 303.824 285.408 302.896C287.104 301.968 289.008 301.504 291.12 301.504C293.328 301.504 295.296 301.984 297.024 302.944C298.784 303.872 300.16 305.248 301.152 307.072C302.176 308.896 302.688 311.136 302.688 313.792V325.6C302.688 326.304 302.448 326.896 301.968 327.376C301.52 327.824 300.944 328.048 300.24 328.048ZM280.512 328.048C279.808 328.048 279.216 327.824 278.736 327.376C278.288 326.896 278.064 326.304 278.064 325.6V304.192C278.064 303.456 278.288 302.864 278.736 302.416C279.216 301.968 279.808 301.744 280.512 301.744C281.248 301.744 281.84 301.968 282.288 302.416C282.736 302.864 282.96 303.456 282.96 304.192V325.6C282.96 326.304 282.736 326.896 282.288 327.376C281.84 327.824 281.248 328.048 280.512 328.048ZM323.405 328C322.701 328 322.109 327.76 321.629 327.28C321.149 326.8 320.909 326.208 320.909 325.504V293.008C320.909 292.272 321.149 291.68 321.629 291.232C322.109 290.752 322.701 290.512 323.405 290.512C324.141 290.512 324.733 290.752 325.181 291.232C325.661 291.68 325.901 292.272 325.901 293.008V325.504C325.901 326.208 325.661 326.8 325.181 327.28C324.733 327.76 324.141 328 323.405 328ZM366.784 328.048C366.08 328.048 365.488 327.824 365.008 327.376C364.56 326.896 364.336 326.304 364.336 325.6V313.792C364.336 311.968 364 310.48 363.328 309.328C362.656 308.176 361.744 307.328 360.592 306.784C359.472 306.208 358.176 305.92 356.704 305.92C355.36 305.92 354.144 306.192 353.056 306.736C351.968 307.28 351.104 308.016 350.464 308.944C349.824 309.84 349.504 310.88 349.504 312.064H346.48C346.48 310.048 346.96 308.256 347.92 306.688C348.912 305.088 350.256 303.824 351.952 302.896C353.648 301.968 355.552 301.504 357.664 301.504C359.872 301.504 361.84 301.984 363.568 302.944C365.328 303.872 366.704 305.248 367.696 307.072C368.72 308.896 369.232 311.136 369.232 313.792V325.6C369.232 326.304 368.992 326.896 368.512 327.376C368.064 327.824 367.488 328.048 366.784 328.048ZM347.056 328.048C346.352 328.048 345.76 327.824 345.28 327.376C344.832 326.896 344.608 326.304 344.608 325.6V304.192C344.608 303.456 344.832 302.864 345.28 302.416C345.76 301.968 346.352 301.744 347.056 301.744C347.792 301.744 348.384 301.968 348.832 302.416C349.28 302.864 349.504 303.456 349.504 304.192V325.6C349.504 326.304 349.28 326.896 348.832 327.376C348.384 327.824 347.792 328.048 347.056 328.048Z" fill="#A4D844"/>
</svg>
